<?xml version="1.0" encoding="UTF-8" standalone="no"?>


<svg version="1.1" id="svg1" width="3797.3333" height="2293.3333" viewBox="0 0 3797.3333 2293.3333" xmlns:sodipodi-0.dtd="http://sodipodi.sourceforge.net/DTD/sodipodi-0.dtd" xmlns:sodipodi-0.dtd="http://sodipodi.sourceforge.net/DTD/sodipodi-0.dtd" sodipodi-0.dtd:docname="Vector File-01.eps" xmlns:inkscape="http://www.inkscape.org/namespaces/inkscape" xmlns:sodipodi="http://sodipodi.sourceforge.net/DTD/sodipodi-0.dtd" xmlns="http://www.w3.org/2000/svg" xmlns:svg="http://www.w3.org/2000/svg">
  <defs id="defs1"></defs>
  <namedview id="namedview1" pagecolor="#ffffff" bordercolor="#000000" borderopacity="0.25" xmlns:inkscape="http://www.inkscape.org/namespaces/inkscape" xmlns:inkscape="http://www.inkscape.org/namespaces/inkscape" inkscape:showpageshadow="2" inkscape:pageopacity="0.0" inkscape:pagecheckerboard="0" inkscape:deskcolor="#d1d1d1">
    <page x="0" y="0" inkscape:label="1" id="page1" width="3797.3333" height="2293.3333" margin="0" bleed="0"></page>
  </namedview>
  <g id="g1" xmlns:inkscape="http://www.inkscape.org/namespaces/inkscape" xmlns:inkscape="http://www.inkscape.org/namespaces/inkscape" inkscape:groupmode="layer" inkscape:label="1">
    <g id="group-R5">
      <path id="path2" d="m 12210.5,9244.93 c 320.9,0 458.1,-198.45 458.1,-426.44 0,-177.34 -84.5,-367.33 -301.9,-428.55 l 331.4,-569.99 h -276.5 l -325.1,550.99 h -371.6 c -23.2,0 -35.9,-10.56 -35.9,-35.89 v -515.1 h -249.1 v 563.66 c 0,160.44 67.6,225.88 223.8,225.88 h 555.2 c 141.5,0 198.5,97.11 198.5,198.45 0,101.33 -61.3,187.88 -198.5,187.88 h -781.1 v 249.11 h 772.7" style="fill:#414e67;fill-opacity:1;fill-rule:nonzero;stroke:none" transform="matrix(0.13333333,0,0,-0.13333333,0,2293.3333)"></path>
      <path id="path3" d="m 13090.8,7819.95 h -274.5 l 500.3,1266.65 c 52.8,133 149.9,183.66 299.8,183.66 147.8,0 244.9,-50.66 295.6,-183.66 l 481.3,-1266.65 h -276.5 L 13684,8966.26 c -12.7,33.78 -35.9,48.56 -69.7,48.56 -33.8,0 -57,-14.78 -71.8,-48.56 l -451.7,-1146.31" style="fill:#414e67;fill-opacity:1;fill-rule:nonzero;stroke:none" transform="matrix(0.13333333,0,0,-0.13333333,0,2293.3333)"></path>
      <path id="path4" d="m 15742.3,9244.93 v -249.11 h -713.6 c -149.9,0 -215.3,-69.67 -215.3,-179.44 0,-116.11 73.9,-168.89 217.4,-168.89 h 700.9 v -225.88 h -707.2 c -143.6,0 -217.4,-57.01 -217.4,-173.11 0,-111.89 69.6,-179.45 215.3,-179.45 h 722 v -249.1 h -722 c -337.8,0 -475,166.77 -475,388.44 0,162.55 73.9,272.32 204.8,327.21 -133,54.89 -200.6,164.67 -200.6,320.89 0,228 141.5,388.44 477.1,388.44 h 713.6" style="fill:#414e67;fill-opacity:1;fill-rule:nonzero;stroke:none" transform="matrix(0.13333333,0,0,-0.13333333,0,2293.3333)"></path>
      <path id="path5" d="m 17038.4,9244.93 v -249.11 h -415.8 V 7819.95 h -251.2 v 1175.87 h -415.9 v 249.11 h 1082.9" style="fill:#414e67;fill-opacity:1;fill-rule:nonzero;stroke:none" transform="matrix(0.13333333,0,0,-0.13333333,0,2293.3333)"></path>
      <path id="path6" d="m 18410.6,9244.93 v -249.11 h -713.5 c -149.9,0 -215.3,-69.67 -215.3,-179.44 0,-116.11 73.9,-168.89 217.4,-168.89 h 700.9 v -225.88 h -707.2 c -143.6,0 -217.5,-57.01 -217.5,-173.11 0,-111.89 69.7,-179.45 215.4,-179.45 h 722 v -249.1 h -722 c -337.8,0 -475,166.77 -475,388.44 0,162.55 73.9,272.32 204.7,327.21 -133,54.89 -200.5,164.67 -200.5,320.89 0,228 141.4,388.44 477.1,388.44 h 713.5" style="fill:#414e67;fill-opacity:1;fill-rule:nonzero;stroke:none" transform="matrix(0.13333333,0,0,-0.13333333,0,2293.3333)"></path>
      <path id="path7" d="m 19877.8,9244.93 v -249.11 h -551 c -274.4,0 -394.7,-137.22 -394.7,-464.44 0,-325.1 118.2,-462.33 394.7,-462.33 h 551 v -249.1 h -551 c -415.9,0 -643.9,234.33 -643.9,711.43 0,479.22 230.2,713.55 643.9,713.55 h 551" style="fill:#414e67;fill-opacity:1;fill-rule:nonzero;stroke:none" transform="matrix(0.13333333,0,0,-0.13333333,0,2293.3333)"></path>
      <path id="path8" d="m 10529.1,8933.41 v -18.9 c 0,-265.8 -161.6,-493.99 -391.8,-591.6 l -0.5,-0.2 -114.2,-51.95 -1.2,1.45 h -771.31 c -178.94,0 -340.92,-72.51 -458.12,-189.8 -117.29,-117.19 -189.8,-279.18 -189.8,-458.12 v 1951.42 h 1284.6 c 354.73,0 642.33,-287.51 642.33,-642.3" style="fill:#f36019;fill-opacity:1;fill-rule:nonzero;stroke:none" transform="matrix(0.13333333,0,0,-0.13333333,0,2293.3333)"></path>
      <path id="path9" d="M 10022.6,8270.76 8602.17,7624.29 c 0,178.94 72.51,340.93 189.8,458.12 117.2,117.29 279.18,189.8 458.12,189.8 h 771.31 l 1.2,-1.45" style="fill:#ac694d;fill-opacity:1;fill-rule:nonzero;stroke:none" transform="matrix(0.13333333,0,0,-0.13333333,0,2293.3333)"></path>
      <path id="path10" d="M 10376.6,7624.29 H 8602.17 l 1420.43,646.47 412.5,-526.49 c 38.1,-48.71 3.4,-119.98 -58.5,-119.98" style="fill:#414e67;fill-opacity:1;fill-rule:nonzero;stroke:none" transform="matrix(0.13333333,0,0,-0.13333333,0,2293.3333)"></path>
    </g>
  </g>
</svg>