<?xml version="1.0" encoding="UTF-8" standalone="no"?>


<svg version="1.1" id="svg1" width="3797.3333" height="2293.3333" viewBox="0 0 3797.3333 2293.3333" xmlns:sodipodi-0.dtd="http://sodipodi.sourceforge.net/DTD/sodipodi-0.dtd" xmlns:sodipodi-0.dtd="http://sodipodi.sourceforge.net/DTD/sodipodi-0.dtd" sodipodi-0.dtd:docname="Vector File-03.eps" xmlns:inkscape="http://www.inkscape.org/namespaces/inkscape" xmlns:sodipodi="http://sodipodi.sourceforge.net/DTD/sodipodi-0.dtd" xmlns="http://www.w3.org/2000/svg" xmlns:svg="http://www.w3.org/2000/svg">
  <defs id="defs1"></defs>
  <namedview id="namedview1" pagecolor="#ffffff" bordercolor="#000000" borderopacity="0.25" xmlns:inkscape="http://www.inkscape.org/namespaces/inkscape" xmlns:inkscape="http://www.inkscape.org/namespaces/inkscape" inkscape:showpageshadow="2" inkscape:pageopacity="0.0" inkscape:pagecheckerboard="0" inkscape:deskcolor="#d1d1d1">
    <page x="0" y="0" inkscape:label="1" id="page1" width="3797.3333" height="2293.3333" margin="0" bleed="0"></page>
  </namedview>
  <g id="g1" xmlns:inkscape="http://www.inkscape.org/namespaces/inkscape" xmlns:inkscape="http://www.inkscape.org/namespaces/inkscape" inkscape:groupmode="layer" inkscape:label="1">
    <g id="group-R5">
      <path id="path2" d="M 28890.4,-254.301 H -410.434 V 17454.3 H 28890.4 V -254.301" style="fill:#f36019;fill-opacity:1;fill-rule:nonzero;stroke:none" transform="matrix(0.13333333,0,0,-0.13333333,0,2293.3333)"></path>
      <path id="path3" d="m 10792.7,9299.82 c 320.8,0 458.1,-198.44 458.1,-426.44 0,-177.33 -84.5,-367.32 -301.9,-428.54 l 331.4,-569.99 h -276.5 l -325.1,550.98 h -371.6 c -23.2,0 -35.9,-10.55 -35.9,-35.88 v -515.1 h -249.1 v 563.66 c 0,160.44 67.6,225.88 223.8,225.88 h 555.2 c 141.4,0 198.4,97.11 198.4,198.44 0,101.34 -61.2,187.89 -198.4,187.89 H 10020 v 249.1 h 772.7" style="fill:#ffffff;fill-opacity:1;fill-rule:nonzero;stroke:none" transform="matrix(0.13333333,0,0,-0.13333333,0,2293.3333)"></path>
      <path id="path4" d="m 11672.9,7874.85 h -274.4 l 500.3,1266.65 c 52.8,132.99 149.9,183.66 299.8,183.66 147.8,0 244.9,-50.67 295.6,-183.66 l 481.3,-1266.65 h -276.6 l -432.7,1146.31 c -12.7,33.78 -35.9,48.56 -69.7,48.56 -33.8,0 -57,-14.78 -71.8,-48.56 l -451.8,-1146.31" style="fill:#ffffff;fill-opacity:1;fill-rule:nonzero;stroke:none" transform="matrix(0.13333333,0,0,-0.13333333,0,2293.3333)"></path>
      <path id="path5" d="m 14324.4,9299.82 v -249.1 h -713.5 c -149.9,0 -215.3,-69.67 -215.3,-179.44 0,-116.11 73.9,-168.89 217.4,-168.89 h 700.9 V 8476.5 h -707.2 c -143.6,0 -217.5,-57 -217.5,-173.1 0,-111.89 69.7,-179.45 215.4,-179.45 h 721.9 v -249.1 h -721.9 c -337.8,0 -475,166.77 -475,388.44 0,162.54 73.9,272.32 204.7,327.21 -133,54.89 -200.5,164.67 -200.5,320.89 0,227.99 141.4,388.43 477.1,388.43 h 713.5" style="fill:#ffffff;fill-opacity:1;fill-rule:nonzero;stroke:none" transform="matrix(0.13333333,0,0,-0.13333333,0,2293.3333)"></path>
      <path id="path6" d="m 15620.6,9299.82 v -249.1 h -415.9 V 7874.85 h -251.2 v 1175.87 h -415.9 v 249.1 h 1083" style="fill:#ffffff;fill-opacity:1;fill-rule:nonzero;stroke:none" transform="matrix(0.13333333,0,0,-0.13333333,0,2293.3333)"></path>
      <path id="path7" d="m 16992.8,9299.82 v -249.1 h -713.5 c -149.9,0 -215.4,-69.67 -215.4,-179.44 0,-116.11 73.9,-168.89 217.5,-168.89 h 700.9 V 8476.5 h -707.2 c -143.6,0 -217.5,-57 -217.5,-173.1 0,-111.89 69.7,-179.45 215.3,-179.45 h 722 v -249.1 h -722 c -337.7,0 -475,166.77 -475,388.44 0,162.54 73.9,272.32 204.8,327.21 -133,54.89 -200.5,164.67 -200.5,320.89 0,227.99 141.4,388.43 477.1,388.43 h 713.5" style="fill:#ffffff;fill-opacity:1;fill-rule:nonzero;stroke:none" transform="matrix(0.13333333,0,0,-0.13333333,0,2293.3333)"></path>
      <path id="path8" d="m 18460,9299.82 v -249.1 h -551 c -274.4,0 -394.8,-137.23 -394.8,-464.44 0,-325.11 118.3,-462.33 394.8,-462.33 h 551 v -249.1 h -551 c -415.9,0 -643.9,234.32 -643.9,711.43 0,479.22 230.1,713.54 643.9,713.54 h 551" style="fill:#ffffff;fill-opacity:1;fill-rule:nonzero;stroke:none" transform="matrix(0.13333333,0,0,-0.13333333,0,2293.3333)"></path>
    </g>
  </g>
</svg>